<svg width="0" height="0" class="hidden">
  <symbol xmlns="http://www.w3.org/2000/svg" viewBox="0 0 22 22" id="comments">
    <path d="M9.75 11A1.125 1.125 0 1012 11a1.125 1.125 0 00-2.25 0zm4.688 0a1.125 1.125 0 102.25 0 1.125 1.125 0 00-2.25 0zm-9.375 0a1.125 1.125 0 102.25 0 1.125 1.125 0 00-2.25 0zM20.56 6.931a10.505 10.505 0 00-5.616-5.615A10.45 10.45 0 0010.875.5h-.047A10.476 10.476 0 00.375 11.05 10.533 10.533 0 001.5 15.733v3.563a1.078 1.078 0 001.078 1.078h3.565a10.533 10.533 0 004.685 1.125h.05c1.403 0 2.765-.272 4.047-.804a10.417 10.417 0 003.347-2.231 10.473 10.473 0 003.103-7.418 10.459 10.459 0 00-.816-4.116zm-3.542 10.266a8.673 8.673 0 01-6.143 2.522h-.04a8.75 8.75 0 01-4.057-1.02l-.197-.105h-3.3v-3.3l-.105-.197a8.75 8.75 0 01-1.02-4.057 8.665 8.665 0 012.522-6.183 8.653 8.653 0 016.16-2.576h.04c1.171 0 2.308.228 3.38.678a8.662 8.662 0 012.788 1.875 8.683 8.683 0 012.552 6.206 8.686 8.686 0 01-2.58 6.157z"></path>
  </symbol>
  <symbol xmlns="http://www.w3.org/2000/svg" viewBox="0 0 19 20" id="likes">
    <path d="M18.138 10.51c.394-.52.612-1.158.612-1.822 0-1.052-.588-2.048-1.535-2.604a1.586 1.586 0 00-.804-.218h-5.62l.14-2.88a2.509 2.509 0 00-.691-1.861A2.498 2.498 0 008.414.342c-1.219 0-2.297.82-2.62 1.995L3.78 9.626H.75a.75.75 0 00-.75.75v8.531c0 .415.335.75.75.75h14.093c.216 0 .427-.042.621-.127a3.014 3.014 0 001.709-3.642 3.016 3.016 0 00.485-2.688c.394-.52.611-1.158.611-1.821a3.2 3.2 0 00-.13-.87zm-16.45 7.46v-6.657h1.898v6.657H1.688zm14.915-8.274l-.513.445.326.596a1.338 1.338 0 01-.298 1.648l-.513.445.325.595a1.338 1.338 0 01-.298 1.648l-.512.445.325.595a1.332 1.332 0 01-.626 1.854H5.086v-6.729L7.418 2.79a1.034 1.034 0 01.989-.757.833.833 0 01.837.872l-.225 4.65h7.368c.418.255.675.687.675 1.134 0 .387-.168.753-.459 1.008z"></path>
  </symbol>
  <symbol xmlns="http://www.w3.org/2000/svg" viewBox="0 0 20 20" id="saves">
    <path d="M19.187 4.874l-3.811-3.81a1.494 1.494 0 00-.626-.376V.625H1.625a.75.75 0 00-.75.75v17.25c0 .415.335.75.75.75h17.25a.75.75 0 00.75-.75V5.934c0-.399-.157-.779-.438-1.06zM7.25 2.313h6V4.75h-6V2.312zm10.687 15.374H2.562V2.313H5.75V5.5c0 .415.335.75.75.75H14a.75.75 0 00.75-.75V2.823l3.187 3.188v11.677zM10.25 8.36a3.376 3.376 0 10.002 6.752 3.376 3.376 0 00-.002-6.752zm0 5.25a1.874 1.874 0 11-.001-3.749 1.874 1.874 0 010 3.75z"></path>
  </symbol>
  <symbol xmlns="http://www.w3.org/2000/svg" viewBox="0 0 18 20" id="shares">
    <path d="M14.687 13.563a2.8 2.8 0 00-1.767.625l-4.856-3.513a3.766 3.766 0 000-1.35l4.856-3.513a2.8 2.8 0 001.767.625A2.815 2.815 0 0017.5 3.626 2.815 2.815 0 0014.687.812a2.815 2.815 0 00-2.702 3.593l-4.612 3.34A3.749 3.749 0 00.625 10a3.749 3.749 0 006.748 2.255l4.612 3.34a2.815 2.815 0 002.702 3.593 2.815 2.815 0 002.813-2.813 2.815 2.815 0 00-2.813-2.813zm0-11.157a1.22 1.22 0 110 2.439 1.22 1.22 0 010-2.439zM4.375 12.062A2.066 2.066 0 012.312 10c0-1.137.926-2.063 2.063-2.063S6.437 8.864 6.437 10a2.066 2.066 0 01-2.062 2.063zm10.312 5.532a1.22 1.22 0 11.002-2.439 1.22 1.22 0 01-.002 2.439z"></path>
  </symbol>
</svg>